# xmcd
#
# Track frame offsets:
#	150
#	16852
#	35902
#	51935
#	69360
#	89485
#	108442
#	123310
#	147767
#	176782
#	194045
#
# Disc length: 2790 seconds
#
# Revision: 6
# Processed by: cddbd v1.5.2PL0 Copyright (c) Steve Scherf et al.
# Submitted via: EasyCDDAExtractor 10.0.3.1
#
DISCID=a00ae40b
DTITLE=쿨 (Cool) - Summer Story
DYEAR=1997
DGENRE=Korea Pop
TTITLE0=해변의 여인
TTITLE1=送人(송인)
TTITLE2=있을때 잘해
TTITLE3=지금까지
TTITLE4=너의 지나간 사랑
TTITLE5=잊을수 있어
TTITLE6=진주조개잡이
TTITLE7=슬퍼지려 하기 전에 (97 YURI-MIX)
TTITLE8=너의 집 앞에서
TTITLE9=해변의 여인 (REMIX)
TTITLE10=있을때 잘해 (REMIX)
EXTD=YEAR: 1997
EXTT0=
EXTT1=
EXTT2=
EXTT3=
EXTT4=
EXTT5=
EXTT6=
EXTT7=
EXTT8=
EXTT9=
EXTT10=
PLAYORDER=
